<?xml version="1.0" encoding="UTF-8" standalone="no"?>
<!-- Created with Inkscape (http://www.inkscape.org/) -->

<svg
   width="136.30728mm"
   height="70.186134mm"
   viewBox="0 0 136.30727 70.186135"
   version="1.1"
   id="svg5"
   inkscape:version="1.2 (dc2aeda, 2022-05-15)"
   sodipodi:docname="map.svg"
   inkscape:export-filename="map.png"
   inkscape:export-xdpi="47.725224"
   inkscape:export-ydpi="47.725224"
   xmlns:inkscape="http://www.inkscape.org/namespaces/inkscape"
   xmlns:sodipodi="http://sodipodi.sourceforge.net/DTD/sodipodi-0.dtd"
   xmlns="http://www.w3.org/2000/svg"
   xmlns:svg="http://www.w3.org/2000/svg">
  <sodipodi:namedview
     id="namedview7"
     pagecolor="#ffffff"
     bordercolor="#000000"
     borderopacity="0.25"
     inkscape:showpageshadow="2"
     inkscape:pageopacity="0.0"
     inkscape:pagecheckerboard="0"
     inkscape:deskcolor="#d1d1d1"
     inkscape:document-units="mm"
     showgrid="false"
     inkscape:zoom="0.90920931"
     inkscape:cx="250.76734"
     inkscape:cy="151.78023"
     inkscape:window-width="1280"
     inkscape:window-height="800"
     inkscape:window-x="0"
     inkscape:window-y="0"
     inkscape:window-maximized="0"
     inkscape:current-layer="layer1" />
  <defs
     id="defs2" />
  <g
     inkscape:label="Calque 1"
     inkscape:groupmode="layer"
     id="layer1"
     transform="translate(-17.857442,-52.649964)">
    <rect
       style="fill:none;stroke:#b3b3b3;stroke-width:1.797;stroke-linejoin:round;stroke-dasharray:none"
       id="rect525"
       width="127.5"
       height="10.826245"
       x="21.085024"
       y="65.367882" />
    <rect
       style="fill:none;stroke:#b3b3b3;stroke-width:1.797;stroke-linejoin:round;stroke-dasharray:none"
       id="rect234"
       width="50"
       height="10.826245"
       x="21.104576"
       y="111.11135" />
    <path
       style="fill:none;stroke:#b3b3b3;stroke-width:1.797;stroke-linejoin:round;stroke-dasharray:none"
       d="m 46.104576,111.11137 c 0,10.82625 0,10.82625 0,10.82625"
       id="path513" />
    <g
       aria-label="0"
       id="text589"
       style="font-weight:bold;font-size:5.64444px;-inkscape-font-specification:'sans-serif, Bold';text-align:center;text-anchor:middle;fill:#b3b3b3;stroke-width:0.147414;stroke-linejoin:round">
      <path
         d="m 22.80232,100.52528 q 0,0.51814 -0.09371,0.92879 -0.09371,0.4079 -0.292144,0.66973 -0.203949,0.26734 -0.523654,0.40514 -0.319704,0.13505 -0.788237,0.13505 -0.460264,0 -0.785481,-0.1378 -0.325217,-0.13781 -0.52641,-0.4079 -0.20395,-0.2701 -0.2949,-0.66973 -0.09095,-0.40239 -0.09095,-0.92053 0,-0.534675 0.09371,-0.928794 0.09371,-0.394119 0.297656,-0.66697 0.203949,-0.270095 0.529166,-0.405143 0.325217,-0.135048 0.777213,-0.135048 0.471289,0 0.790993,0.14056 0.319705,0.137804 0.523654,0.413411 0.201194,0.270096 0.292144,0.66697 0.09095,0.394114 0.09095,0.912264 z m -1.066601,0 q 0,-0.744143 -0.146072,-1.058336 -0.146072,-0.316948 -0.485069,-0.316948 -0.338997,0 -0.485069,0.316948 -0.146072,0.314193 -0.146072,1.063846 0,0.73036 0.148828,1.05282 0.148828,0.32246 0.482313,0.32246 0.333485,0 0.482313,-0.32246 0.148828,-0.32246 0.148828,-1.05833 z"
         id="path26147" />
    </g>
    <g
       aria-label="50"
       id="text643"
       style="font-weight:bold;font-size:5.64444px;-inkscape-font-specification:'sans-serif, Bold';text-align:center;text-anchor:middle;fill:#b3b3b3;stroke-width:0.147414;stroke-linejoin:round">
      <path
         d="m 45.663603,101.18949 q 0,0.31971 -0.121267,0.59531 -0.118511,0.27285 -0.347266,0.46854 -0.253558,0.20946 -0.584287,0.31143 -0.327973,0.0992 -0.749653,0.0992 -0.493337,-0.003 -0.83509,-0.0799 -0.338997,-0.0744 -0.553971,-0.16812 v -0.90674 h 0.115755 q 0.250803,0.14882 0.540191,0.24804 0.289388,0.0992 0.576019,0.0992 0.173633,0 0.374826,-0.0386 0.20395,-0.0414 0.322461,-0.14608 0.09371,-0.0854 0.14056,-0.17363 0.04961,-0.0882 0.04961,-0.27285 0,-0.14332 -0.06615,-0.24529 -0.06339,-0.10473 -0.165364,-0.16812 -0.148828,-0.0909 -0.35829,-0.11851 -0.209461,-0.0303 -0.380338,-0.0303 -0.248047,0 -0.476801,0.0441 -0.225998,0.0413 -0.396875,0.0827 h -0.121267 v -2.315102 h 2.918683 v 0.785481 h -1.92374 v 0.669726 q 0.08544,-0.0055 0.214974,-0.0083 0.132291,-0.0055 0.23151,-0.0055 0.338997,0 0.60358,0.06615 0.26734,0.06339 0.460265,0.179155 0.250802,0.15158 0.391362,0.40238 0.14056,0.24805 0.14056,0.62563 z"
         id="path26150" />
      <path
         d="m 49.737081,100.52528 q 0,0.51814 -0.09371,0.92879 -0.09371,0.4079 -0.292144,0.66973 -0.203949,0.26734 -0.523654,0.40514 -0.319704,0.13505 -0.788237,0.13505 -0.460264,0 -0.785481,-0.1378 -0.325217,-0.13781 -0.52641,-0.4079 -0.20395,-0.2701 -0.2949,-0.66973 -0.09095,-0.40239 -0.09095,-0.92053 0,-0.534675 0.09371,-0.928794 0.09371,-0.394119 0.297656,-0.66697 0.203949,-0.270095 0.529166,-0.405143 0.325217,-0.135048 0.777213,-0.135048 0.471289,0 0.790993,0.14056 0.319705,0.137804 0.523654,0.413411 0.201194,0.270096 0.292144,0.66697 0.09095,0.394114 0.09095,0.912264 z m -1.066601,0 q 0,-0.744143 -0.146072,-1.058336 -0.146072,-0.316948 -0.485069,-0.316948 -0.338997,0 -0.485069,0.316948 -0.146072,0.314193 -0.146072,1.063846 0,0.73036 0.148828,1.05282 0.148828,0.32246 0.482313,0.32246 0.333485,0 0.482313,-0.32246 0.148828,-0.32246 0.148828,-1.05833 z"
         id="path26152" />
    </g>
    <g
       aria-label="100"
       id="text664"
       style="font-weight:bold;font-size:5.64444px;-inkscape-font-specification:'sans-serif, Bold';text-align:center;text-anchor:middle;fill:#b3b3b3;stroke-width:0.147414;stroke-linejoin:round">
      <path
         d="m 68.345744,102.57855 h -2.739538 v -0.71658 h 0.865408 v -2.169028 h -0.865408 v -0.669726 q 0.198438,0 0.380339,-0.02205 0.181901,-0.02481 0.303168,-0.08268 0.143316,-0.0689 0.214974,-0.179145 0.07166,-0.110243 0.08268,-0.275608 h 0.91226 v 3.398237 h 0.846115 z"
         id="path26155" />
      <path
         d="m 72.590099,100.52528 q 0,0.51814 -0.09371,0.92879 -0.09371,0.4079 -0.292144,0.66973 -0.203949,0.26734 -0.523654,0.40514 -0.319705,0.13505 -0.788237,0.13505 -0.460265,0 -0.785481,-0.1378 -0.325217,-0.13781 -0.526411,-0.4079 -0.203949,-0.2701 -0.2949,-0.66973 -0.09095,-0.40239 -0.09095,-0.92053 0,-0.534675 0.09371,-0.928794 0.09371,-0.394119 0.297656,-0.66697 0.203949,-0.270095 0.529166,-0.405143 0.325217,-0.135048 0.777213,-0.135048 0.471288,0 0.790993,0.14056 0.319705,0.137804 0.523654,0.413411 0.201194,0.270096 0.292144,0.66697 0.09095,0.394114 0.09095,0.912264 z m -1.066601,0 q 0,-0.744143 -0.146072,-1.058336 -0.146072,-0.316948 -0.485069,-0.316948 -0.338997,0 -0.485069,0.316948 -0.146072,0.314193 -0.146072,1.063846 0,0.73036 0.148828,1.05282 0.148828,0.32246 0.482313,0.32246 0.333485,0 0.482313,-0.32246 0.148828,-0.32246 0.148828,-1.05833 z"
         id="path26157" />
      <path
         d="m 76.602943,100.52528 q 0,0.51814 -0.09371,0.92879 -0.09371,0.4079 -0.292144,0.66973 -0.203949,0.26734 -0.523654,0.40514 -0.319705,0.13505 -0.788237,0.13505 -0.460265,0 -0.785481,-0.1378 -0.325217,-0.13781 -0.526411,-0.4079 -0.203949,-0.2701 -0.294899,-0.66973 -0.09095,-0.40239 -0.09095,-0.92053 0,-0.534675 0.09371,-0.928794 0.09371,-0.394119 0.297656,-0.66697 0.203949,-0.270095 0.529166,-0.405143 0.325217,-0.135048 0.777213,-0.135048 0.471289,0 0.790993,0.14056 0.319705,0.137804 0.523654,0.413411 0.201194,0.270096 0.292144,0.66697 0.09095,0.394114 0.09095,0.912264 z m -1.066601,0 q 0,-0.744143 -0.146072,-1.058336 -0.146072,-0.316948 -0.485069,-0.316948 -0.338997,0 -0.485069,0.316948 -0.146072,0.314193 -0.146072,1.063846 0,0.73036 0.148828,1.05282 0.148828,0.32246 0.482313,0.32246 0.333485,0 0.482313,-0.32246 0.148828,-0.32246 0.148828,-1.05833 z"
         id="path26159" />
    </g>
    <path
       style="fill:none;stroke:#b3b3b3;stroke-width:1.797;stroke-linejoin:round;stroke-dasharray:none"
       d="m 84.835024,65.367885 c 0,10.826245 0,10.826245 0,10.826245"
       id="path527" />
    <g
       aria-label="0"
       id="text9837"
       style="font-weight:bold;font-size:5.64444px;-inkscape-font-specification:'sans-serif, Bold';text-align:center;text-anchor:middle;fill:none;stroke:#ffffff;stroke-width:2.15;stroke-linejoin:round" />
    <g
       aria-label="0"
       id="text9749"
       style="font-weight:bold;font-size:5.64444px;-inkscape-font-specification:'sans-serif, Bold';text-align:center;text-anchor:middle;fill:#b3b3b3;stroke-width:0.147414;stroke-linejoin:round">
      <path
         d="m 22.802322,54.823136 q 0,0.518142 -0.09371,0.928797 -0.09371,0.407899 -0.292144,0.669726 -0.203949,0.267339 -0.523654,0.405143 -0.319704,0.135048 -0.788237,0.135048 -0.460264,0 -0.785481,-0.137804 -0.325217,-0.137804 -0.52641,-0.407899 -0.20395,-0.270095 -0.2949,-0.669726 -0.09095,-0.402387 -0.09095,-0.920529 0,-0.534678 0.09371,-0.928797 0.09371,-0.394119 0.297656,-0.66697 0.203949,-0.270095 0.529166,-0.405143 0.325217,-0.135047 0.777213,-0.135047 0.471289,0 0.790993,0.140559 0.319705,0.137804 0.523654,0.413412 0.201194,0.270095 0.292144,0.666969 0.09095,0.394119 0.09095,0.912261 z m -1.066601,0 q 0,-0.74414 -0.146072,-1.058332 -0.146072,-0.316949 -0.485069,-0.316949 -0.338997,0 -0.485069,0.316949 -0.146072,0.314192 -0.146072,1.063844 0,0.73036 0.148828,1.052821 0.148828,0.32246 0.482313,0.32246 0.333485,0 0.482313,-0.32246 0.148828,-0.322461 0.148828,-1.058333 z"
         id="path26162" />
    </g>
    <g
       aria-label="50"
       id="text9841"
       style="font-weight:bold;font-size:5.64444px;-inkscape-font-specification:'sans-serif, Bold';text-align:center;text-anchor:middle;fill:none;stroke:#ffffff;stroke-width:2.15;stroke-linejoin:round" />
    <g
       aria-label="127"
       id="text24864"
       style="font-weight:bold;font-size:5.64444px;-inkscape-font-specification:'sans-serif, Bold';text-align:center;text-anchor:middle;fill:none;stroke:#ffffff;stroke-width:2.115;stroke-linejoin:round" />
    <g
       aria-label="127"
       id="text23277"
       style="font-weight:bold;font-size:5.64444px;-inkscape-font-specification:'sans-serif, Bold';text-align:center;text-anchor:middle;fill:#b3b3b3;stroke-width:0.147414;stroke-linejoin:round">
      <path
         d="m 82.105144,56.876411 h -2.739538 v -0.716579 h 0.865407 v -2.16903 h -0.865407 v -0.669726 q 0.198437,0 0.380338,-0.02205 0.181901,-0.02481 0.303168,-0.08268 0.143316,-0.0689 0.214974,-0.179145 0.07166,-0.110243 0.08268,-0.275607 h 0.912261 v 3.398239 h 0.846115 z"
         id="path26165" />
      <path
         d="m 86.377059,56.876411 h -3.221851 v -0.677994 q 0.369314,-0.267339 0.738628,-0.567751 0.37207,-0.300412 0.595312,-0.518142 0.333485,-0.322461 0.474045,-0.562239 0.140559,-0.239779 0.140559,-0.474045 0,-0.28112 -0.181901,-0.432704 -0.179144,-0.15434 -0.518142,-0.15434 -0.253558,0 -0.534678,0.104731 -0.278363,0.104731 -0.518142,0.267339 h -0.08819 v -0.91226 q 0.195681,-0.08544 0.576019,-0.170877 0.383095,-0.08544 0.766189,-0.08544 0.771701,0 1.176844,0.325216 0.405143,0.322461 0.405143,0.915017 0,0.388607 -0.195682,0.738628 -0.192925,0.350021 -0.592556,0.722091 -0.250802,0.231511 -0.504361,0.427192 -0.253559,0.192925 -0.361046,0.270095 h 1.843814 z"
         id="path26167" />
      <path
         d="m 90.304464,53.588415 -1.857594,3.287996 h -1.179599 l 1.929252,-3.318313 h -2.108397 v -0.785481 h 3.216338 z"
         id="path26169" />
    </g>
    <g
       aria-label="255"
       id="text24868"
       style="font-weight:bold;font-size:5.64444px;-inkscape-font-specification:'sans-serif, Bold';text-align:center;text-anchor:middle;fill:none;stroke:#ffffff;stroke-width:2.115;stroke-linejoin:round" />
    <g
       aria-label="255"
       id="text23281"
       style="font-weight:bold;font-size:5.64444px;-inkscape-font-specification:'sans-serif, Bold';text-align:center;text-anchor:middle;fill:#b3b3b3;stroke-width:0.147414;stroke-linejoin:round">
      <path
         d="m 146.2272,56.833687 h -3.22185 v -0.677994 q 0.36931,-0.26734 0.73863,-0.567752 0.37207,-0.300412 0.59531,-0.518142 0.33348,-0.32246 0.47404,-0.562239 0.14056,-0.239778 0.14056,-0.474045 0,-0.281119 -0.1819,-0.432703 -0.17914,-0.15434 -0.51814,-0.15434 -0.25356,0 -0.53468,0.10473 -0.27836,0.104731 -0.51814,0.26734 h -0.0882 v -0.912261 q 0.19569,-0.08544 0.57602,-0.170877 0.3831,-0.08544 0.76619,-0.08544 0.7717,0 1.17685,0.325217 0.40514,0.32246 0.40514,0.915016 0,0.388607 -0.19568,0.738628 -0.19293,0.350022 -0.59256,0.722092 -0.2508,0.23151 -0.50436,0.427191 -0.25356,0.192926 -0.36105,0.270096 h 1.84382 z"
         id="path26172" />
      <path
         d="m 150.15185,55.444625 q 0,0.319705 -0.12127,0.595312 -0.11851,0.272852 -0.34726,0.468533 -0.25356,0.209462 -0.58429,0.311436 -0.32798,0.09922 -0.74965,0.09922 -0.49334,-0.0028 -0.8351,-0.07993 -0.33899,-0.07441 -0.55397,-0.168121 V 55.76433 h 0.11576 q 0.2508,0.148828 0.54019,0.248047 0.28939,0.09922 0.57602,0.09922 0.17363,0 0.37483,-0.03859 0.20394,-0.04134 0.32246,-0.146072 0.0937,-0.08544 0.14056,-0.173632 0.0496,-0.08819 0.0496,-0.272852 0,-0.143316 -0.0661,-0.24529 -0.0634,-0.104731 -0.16537,-0.168121 -0.14882,-0.09095 -0.35828,-0.118511 -0.20947,-0.03032 -0.38034,-0.03032 -0.24805,0 -0.4768,0.0441 -0.226,0.04134 -0.39688,0.08268 h -0.12127 v -2.315103 h 2.91869 v 0.785481 h -1.92374 v 0.669726 q 0.0854,-0.0055 0.21497,-0.0083 0.13229,-0.0055 0.23151,-0.0055 0.339,0 0.60358,0.06615 0.26734,0.06339 0.46027,0.179145 0.2508,0.151584 0.39136,0.402387 0.14056,0.248046 0.14056,0.625628 z"
         id="path26174" />
      <path
         d="m 154.16469,55.444625 q 0,0.319705 -0.12127,0.595312 -0.11851,0.272852 -0.34726,0.468533 -0.25356,0.209462 -0.58429,0.311436 -0.32797,0.09922 -0.74965,0.09922 -0.49334,-0.0028 -0.83509,-0.07993 -0.339,-0.07441 -0.55397,-0.168121 V 55.76433 h 0.11575 q 0.25081,0.148828 0.54019,0.248047 0.28939,0.09922 0.57602,0.09922 0.17364,0 0.37483,-0.03859 0.20395,-0.04134 0.32246,-0.146072 0.0937,-0.08544 0.14056,-0.173632 0.0496,-0.08819 0.0496,-0.272852 0,-0.143316 -0.0661,-0.24529 -0.0634,-0.104731 -0.16536,-0.168121 -0.14883,-0.09095 -0.35829,-0.118511 -0.20946,-0.03032 -0.38034,-0.03032 -0.24805,0 -0.4768,0.0441 -0.226,0.04134 -0.39687,0.08268 h -0.12127 v -2.315103 h 2.91868 v 0.785481 h -1.92374 v 0.669726 q 0.0854,-0.0055 0.21497,-0.0083 0.1323,-0.0055 0.23152,-0.0055 0.33899,0 0.60358,0.06615 0.26733,0.06339 0.46026,0.179145 0.2508,0.151584 0.39136,0.402387 0.14056,0.248046 0.14056,0.625628 z"
         id="path26176" />
    </g>
    <g
       id="path25943">
      <path
         id="path26103"
         style="color:#000000;fill:#526cfe;stroke-linecap:round;stroke-linejoin:round"
         d="m 21.093937,75.25395 a 0.52899998,0.52899998 0 0 0 -0.527616,0.529167 l 0.01344,21.587829 c 0.17313,-0.0258 0.348529,-0.03721 0.525549,-0.03721 0.179456,0 0.35679,0.01114 0.531234,0.03721 L 21.623104,75.783117 A 0.52899998,0.52899998 0 0 0 21.093937,75.25395 Z m 63.754248,0.412378 a 0.52899998,0.52899998 0 0 0 -0.06925,0.0026 0.52899998,0.52899998 0 0 0 -0.450618,0.376204 c -1.005682,3.405467 -3.470464,6.041334 -6.749976,8.345744 -3.279512,2.30441 -7.356428,4.255043 -11.467,6.273002 -5.706338,2.801351 -11.520255,5.743322 -15.326713,10.075362 -0.01118,0.32948 -0.04168,0.64837 -0.110588,0.95033 a 1.0576058,1.0576058 0 0 0 0,5.1e-4 1.0576058,1.0576058 0 0 0 0,5.2e-4 1.0576058,1.0576058 0 0 0 0,5.2e-4 c -0.08789,0.38256 -0.237032,0.74936 -0.480591,1.07073 a 1.0576058,1.0576058 0 0 1 -0.0021,0.004 c -0.244442,0.32041 -0.578809,0.57641 -0.945162,0.73432 a 1.0576058,1.0576058 0 0 1 -0.0078,0.004 c -0.185868,0.0785 -0.376374,0.13125 -0.569991,0.16536 -0.357163,0.61917 -0.676427,1.26399 -0.95343,1.93683 l -2.734717,-0.76636 1.615405,6.30298 0.437699,-0.42582 4.218348,-4.11913 -2.511475,-0.70383 c 2.833838,-6.693626 10.274566,-10.567912 17.837671,-14.280786 4.103724,-2.014597 8.221096,-3.977673 11.60756,-6.357235 3.386463,-2.379556 6.059443,-5.198418 7.156152,-8.912117 a 0.52899998,0.52899998 0 0 0 -0.357084,-0.656291 0.52899998,0.52899998 0 0 0 -0.136426,-0.02119 z m 63.454005,5.17e-4 a 0.52899998,0.52899998 0 0 0 -0.0909,0.01395 0.52899998,0.52899998 0 0 0 -0.38292,0.364319 c -0.47097,1.594832 -1.87987,3.089652 -4.09174,4.472595 -2.21187,1.382947 -5.19969,2.640912 -8.69559,3.804419 -6.99188,2.327013 -16.01845,4.282092 -25.06617,6.298841 -9.04772,2.016748 -18.116194,4.094222 -25.244457,6.695198 -2.658818,0.970156 -5.047844,2.01242 -7.070369,3.160533 1.1e-4,0.0162 5.17e-4,0.0323 5.17e-4,0.0486 0,0.40918 -0.03543,0.79645 -0.119373,1.16427 a 1.0576058,1.0576058 0 0 1 -0.0021,0.002 c -0.0081,0.0351 -0.01675,0.0701 -0.02584,0.1049 2.076377,-1.25885 4.649061,-2.41598 7.580416,-3.485578 7.02681,-2.563963 16.068106,-4.640112 25.111636,-6.655925 9.04352,-2.015813 18.08766,-3.971334 25.16953,-6.328296 3.54089,-1.178481 6.5927,-2.45555 8.92193,-3.911906 2.32928,-1.456351 3.96472,-3.105738 4.54495,-5.070491 a 0.52899998,0.52899998 0 0 0 -0.35709,-0.656291 0.52899998,0.52899998 0 0 0 -0.18242,-0.02067 z m -74.7205,27.775565 c -0.708085,0.69403 -1.299103,1.42498 -1.746664,2.19987 l -2.862357,-0.80254 1.615405,6.30298 0.437183,-0.42582 4.218864,-4.11913 -2.351795,-0.65939 c 0.48231,-0.76799 1.136137,-1.50677 1.945101,-2.21847 -0.389054,-0.006 -0.769027,-0.0666 -1.130164,-0.21962 -0.04229,-0.0179 -0.08419,-0.0373 -0.125573,-0.0579 z m -51.941016,0.24236 c -0.175737,0.0253 -0.354435,0.0362 -0.535368,0.0362 -0.175642,0 -0.349667,-0.0109 -0.521415,-0.0357 l 10e-4,1.9637 -2.727483,0.002 3.25975,5.63067 0.304891,-0.5271 2.947107,-5.1077 -2.727482,0.002 z" />
      <g
         id="g26093">
        <g
           id="path26095" />
      </g>
    </g>
    <g
       id="path25975">
      <g
         id="g26111">
        <g
           id="path26113" />
      </g>
    </g>
    <g
       id="path25989">
      <g
         id="g26129">
        <g
           id="path26131" />
      </g>
    </g>
    <g
       aria-label="0"
       id="text26013"
       style="font-weight:bold;font-size:5.64444px;-inkscape-font-specification:'sans-serif, Bold';text-align:center;text-anchor:middle;fill:none;stroke:#ffffff;stroke-width:2.115;stroke-linejoin:round" />
    <g
       aria-label="50"
       id="text26017"
       style="font-weight:bold;font-size:5.64444px;-inkscape-font-specification:'sans-serif, Bold';text-align:center;text-anchor:middle;fill:none;stroke:#ffffff;stroke-width:2.115;stroke-linejoin:round" />
  </g>
</svg>
