<?xml version="1.0" encoding="UTF-8" standalone="no"?>
<svg
   width="24"
   height="13.714"
   viewBox="0 0 24 13.714"
   role="img"
   version="1.1"
   id="svg6"
   sodipodi:docname="microbit-svgrepo-com.svg"
   inkscape:version="1.2 (dc2aeda, 2022-05-15)"
   xmlns:inkscape="http://www.inkscape.org/namespaces/inkscape"
   xmlns:sodipodi="http://sodipodi.sourceforge.net/DTD/sodipodi-0.dtd"
   xmlns="http://www.w3.org/2000/svg"
   xmlns:svg="http://www.w3.org/2000/svg"
   xmlns:rdf="http://www.w3.org/1999/02/22-rdf-syntax-ns#"
   xmlns:cc="http://creativecommons.org/ns#"
   xmlns:dc="http://purl.org/dc/elements/1.1/">
  <defs
     id="defs10" />
  <sodipodi:namedview
     id="namedview8"
     pagecolor="#505050"
     bordercolor="#eeeeee"
     borderopacity="1"
     inkscape:showpageshadow="0"
     inkscape:pageopacity="0"
     inkscape:pagecheckerboard="0"
     inkscape:deskcolor="#505050"
     showgrid="false"
     inkscape:zoom="9.8333333"
     inkscape:cx="12"
     inkscape:cy="6.8135593"
     inkscape:window-width="1280"
     inkscape:window-height="456"
     inkscape:window-x="0"
     inkscape:window-y="23"
     inkscape:window-maximized="0"
     inkscape:current-layer="svg6" />
  <title
     id="title2">micro:bit icon</title>
  <path
     d="M 6.857,0 A 6.865,6.865 0 0 0 0,6.857 6.864,6.864 0 0 0 6.857,13.714 H 17.144 A 6.863,6.863 0 0 0 24,6.857 C 24,3.076 20.925,0 17.144,0 Z m 0,2.744 h 10.287 a 4.117,4.117 0 0 1 4.113,4.113 4.119,4.119 0 0 1 -4.113,4.116 H 6.857 A 4.12,4.12 0 0 1 2.743,6.857 4.118,4.118 0 0 1 6.857,2.744 Z m 10.168,2.729 a 1.3850008,1.3850008 0 1 0 0.003,2.77 1.3850008,1.3850008 0 0 0 -0.003,-2.77 z m -10.166,0 A 1.3855008,1.3855008 0 1 0 6.856,8.244 1.3850008,1.3850008 0 0 0 6.859,5.474 Z"
     id="path4"
     style="fill:#000000" />
</svg>
