<?xml version="1.0" encoding="UTF-8" standalone="no"?>
<svg
   width="15.533834"
   height="24.000153"
   viewBox="0 0 15.533834 24.000153"
   role="img"
   version="1.1"
   id="svg6"
   sodipodi:docname="grove_dark.svg"
   inkscape:version="1.3 (0e150ed, 2023-07-21)"
   xmlns:inkscape="http://www.inkscape.org/namespaces/inkscape"
   xmlns:sodipodi="http://sodipodi.sourceforge.net/DTD/sodipodi-0.dtd"
   xmlns="http://www.w3.org/2000/svg"
   xmlns:svg="http://www.w3.org/2000/svg"
   xmlns:rdf="http://www.w3.org/1999/02/22-rdf-syntax-ns#"
   xmlns:cc="http://creativecommons.org/ns#"
   xmlns:dc="http://purl.org/dc/elements/1.1/">
  <defs
     id="defs10" />
  <sodipodi:namedview
     id="namedview8"
     pagecolor="#505050"
     bordercolor="#eeeeee"
     borderopacity="1"
     inkscape:showpageshadow="0"
     inkscape:pageopacity="0"
     inkscape:pagecheckerboard="0"
     inkscape:deskcolor="#505050"
     showgrid="false"
     inkscape:zoom="3.4766083"
     inkscape:cx="-1.0067283"
     inkscape:cy="11.361648"
     inkscape:window-width="1280"
     inkscape:window-height="586"
     inkscape:window-x="0"
     inkscape:window-y="25"
     inkscape:window-maximized="0"
     inkscape:current-layer="svg6" />
  <title
     id="title2">micro:bit icon</title>
  <path
     id="path1"
     style="fill:#e9ebfc;fill-opacity:1;stroke-width:0.324103"
     d="M 10.004979,2.3128038e-6 C 9.8423942,-2.476872e-4 9.6114572,0.01980231 9.4918072,0.04440231 c -0.11965,0.0246 -0.35384,0.11104 -0.520375,0.1921 -0.202821,0.0987 -0.385798,0.2307703 -0.554207,0.3997903 -0.153161,0.15372 -0.303497,0.35796 -0.384712,0.52254999 -0.07332,0.1486 -0.163426,0.38726 -0.200144,0.53042 -0.0467,0.18211 -0.06044,0.35895 -0.04572,0.58871 0.01157,0.18063 0.06109,0.44652 0.110037,0.59072 0.04895,0.1442 0.151721,0.36024 0.228449,0.48018 0.07673,0.11995 0.233981,0.3146 0.349373,0.43245 0.115391,0.11784 0.245566,0.28418 0.289246,0.3698 0.04368,0.0856 0.07939,0.22829 0.07939,0.31705 0,0.0888 -0.15914,0.7131 -0.353728,1.38728 -0.194589,0.67417 -0.372844,1.29688 -0.396101,1.38392 -0.02766,0.10349 -0.08364,0.18337 -0.161623,0.23079 -0.06559,0.0399 -0.201945,0.0839 -0.303148,0.0978 -0.1012,0.0139 -0.322591,0.0829 -0.491902,0.15341 -0.274759,0.11438 -0.32109,0.12252 -0.431273,0.0769 -0.0679,-0.0281 -0.203518,-0.14552 -0.301304,-0.26094 -0.09779,-0.11542 -0.210012,-0.27308 -0.249386,-0.35038 -0.03937,-0.0773 -0.07146,-0.22511 -0.07135,-0.32844 8.6e-5,-0.10333 0.04342,-0.32641 0.09614,-0.49575 0.07159,-0.22996 0.09465,-0.39626 0.09111,-0.65688 -0.0026,-0.19192 -0.02636,-0.44132 -0.05276,-0.55421 -0.0264,-0.11288 -0.106836,-0.32519 -0.178705,-0.47197 -0.08281,-0.16911 -0.228613,-0.36468 -0.397944,-0.53377 -0.146969,-0.14676 -0.362704,-0.31811 -0.479508,-0.38069 -0.116807,-0.0626 -0.355285,-0.15029 -0.529922,-0.19496 -0.174636,-0.0447 -0.423396,-0.0812 -0.552699,-0.0812 -0.129304,0 -0.383231,0.043 -0.564424,0.0955 -0.181191,0.0525 -0.434939,0.15864 -0.563753,0.23599 -0.128814,0.0773 -0.330118,0.24609 -0.447352,0.37499 -0.117233,0.12891 -0.272482,0.35258 -0.345018,0.49693 -0.07254,0.14435 -0.158775,0.38976 -0.19177,0.5455 -0.03299,0.15574 -0.06041,0.35126 -0.0608,0.43445 -3.86e-4,0.0832 0.02702,0.28277 0.0608,0.44334 0.03378,0.16056 0.09783,0.37218 0.14253,0.47029 0.0447,0.0981 0.148935,0.26814 0.231631,0.37785 0.0827,0.1097 0.22638,0.26747 0.319226,0.35071 0.09284,0.0832 0.298299,0.21642 0.456563,0.29595 0.158263,0.0795 0.387021,0.16592 0.508316,0.19193 0.136249,0.0292 0.37138,0.0375 0.615338,0.0216 0.217179,-0.0142 0.502882,-0.0366 0.634934,-0.0497 0.172033,-0.0171 0.290287,-0.005 0.417037,0.0437 0.101171,0.0386 0.256607,0.15278 0.363107,0.26663 0.102416,0.1095 0.215076,0.26794 0.250222,0.35206 0.03515,0.0841 0.06381,0.25102 0.06381,0.37098 0,0.11995 -0.02085,0.27023 -0.04639,0.33379 -0.02554,0.0636 -0.0519,0.33524 -0.05845,0.60379 -0.01,0.4081204 -0.02418,0.5004304 -0.08692,0.5629104 -0.04129,0.0411 -0.351646,0.17854 -0.689702,0.30533 -0.489648,0.18364 -0.662576,0.23036 -0.850487,0.22945 -0.129735,-6.2e-4 -0.278085,-0.0232 -0.32961,-0.0501 -0.05152,-0.0269 -0.204182,-0.13136 -0.339324,-0.23213 -0.135141,-0.10077 -0.329167,-0.22514 -0.431105,-0.27635 -0.101938,-0.0512 -0.306682,-0.12316 -0.454889,-0.15995 -0.148206,-0.0368 -0.385683,-0.067 -0.527744,-0.067 -0.142062,0 -0.370216,0.029 -0.507143,0.0645 -0.136927,0.0355 -0.355124,0.11815 -0.484701,0.18356 -0.129576,0.0654 -0.34703801,0.22216 -0.48336101,0.34837 -0.138122,0.12788 -0.310078,0.34204 -0.388396,0.4837 -0.0773,0.1398 -0.175085,0.35582 -0.217228,0.48001 -0.05571,0.16415 -0.07581,0.3378 -0.0738600026,0.63627 0.002100003,0.31535 0.0242500026,0.47233 0.0956300026,0.67731 0.05111,0.14676 0.175024,0.39055 0.275512,0.54181 0.100488,0.15126 0.279036,0.35188 0.396604,0.44568 0.117569,0.0938 0.29684001,0.21269 0.39844601,0.26429 0.101604,0.0516 0.285019,0.12356 0.407657,0.15995 0.129592,0.0384 0.371093,0.0661 0.576483,0.0661 0.194368,0 0.46328,-0.0286 0.597752,-0.0636 0.134472,-0.035 0.355491,-0.12601 0.491066,-0.20215 0.135574,-0.0761 0.350937,-0.24326 0.478671,-0.37149 0.140331,-0.14087 0.290811,-0.3501 0.38019,-0.52858 0.08136,-0.16245 0.168773,-0.4054 0.194114,-0.5398 0.02534,-0.1344 0.07191,-0.34199 0.103674,-0.46142 0.03978,-0.14959 0.106539,-0.26599 0.214547,-0.37399 0.104234,-0.10424 0.258517,-0.19462 0.460248,-0.26965 0.166892,-0.0621 0.502207,-0.18762 0.745139,-0.27903 0.365773,-0.13764 0.458446,-0.15853 0.539133,-0.12177 0.05359,0.0244 0.180545,0.10582 0.282044,0.18089 0.101502,0.0751 0.21304,0.18309 0.247878,0.24 0.05001,0.0817 0.07366,0.36238 0.112717,1.33419 0.02721,0.6769 0.05181,1.68324 0.0546,2.23642 0.0049,0.9648 0.0013,1.01346 -0.08709,1.19282 -0.05068,0.10284 -0.152267,0.24864 -0.22577,0.32392 -0.0735,0.0753 -0.291649,0.24316 -0.484867,0.37316 -0.193218,0.12999 -0.462288,0.34563 -0.597921,0.47917 -0.135631,0.13354 -0.332625,0.36343 -0.437805,0.51083 -0.105177,0.14739 -0.256115,0.40495 -0.335303,0.57229 -0.07919,0.16734 -0.190474,0.48855 -0.247375,0.71382 -0.07826,0.30983 -0.103406,0.51483 -0.103171,0.84161 1.71e-4,0.237599 0.01964,0.550779 0.04321,0.696069 0.02357,0.14529 0.08019,0.37622 0.125948,0.51317 0.04576,0.13695 0.148858,0.3784 0.228952,0.53645 0.08009,0.15806 0.201921,0.37037 0.270823,0.47198 0.0689,0.1016 0.26514,0.32545 0.436129,0.49726 0.17099,0.17182 0.440204,0.39575 0.598255,0.49776 0.158054,0.10202 0.416756,0.2403 0.574808,0.30717 0.158052,0.0669 0.416587,0.1516 0.57464,0.18842 0.158052,0.0368 0.333625,0.0757 0.390072,0.0861 0.05645,0.0104 0.352059,0.012 0.656875,0.004 0.402165,-0.0112 0.637942,-0.0393 0.859363,-0.10216 0.167823,-0.0477 0.439625,-0.14868 0.60395,-0.2246 0.1643238,-0.0759 0.4017228,-0.21185 0.5275758,-0.30198 0.125854,-0.0901 0.32538,-0.25328 0.4435,-0.3626 0.118121,-0.10933 0.27908,-0.28194 0.357748,-0.38354 0.07867,-0.10161 0.153219,-0.19406 0.165642,-0.20534 0.01242,-0.0113 0.07872,-0.11287 0.147218,-0.22577 0.0685,-0.11289 0.173291,-0.32733 0.232972,-0.47666 0.05968,-0.14932 0.137083,-0.38026 0.172007,-0.51317 0.03492,-0.13292 0.08214,-0.42035 0.104845,-0.63879 0.0328,-0.315579 0.02813,-0.485859 -0.02278,-0.828709 -0.03524,-0.23731 -0.100946,-0.53833 -0.145879,-0.66893 -0.04493,-0.13061 -0.150083,-0.37606 -0.233809,-0.5455 -0.08372,-0.16945 -0.255505,-0.43792 -0.381697,-0.59658 -0.126193,-0.15866 -0.339047,-0.38205 -0.472977,-0.49643 -0.133928,-0.11438 -0.333131,-0.26749 -0.442662,-0.34016 -0.109531,-0.0727 -0.294247,-0.17969 -0.4105048,-0.23783 -0.116258,-0.0581 -0.288217,-0.18603 -0.3822,-0.28422 -0.09904,-0.10347 -0.208675,-0.27838 -0.260774,-0.4162 -0.08192,-0.21672 -0.09308,-0.35063 -0.124943,-1.51054 -0.01923,-0.69995 -0.03581,-1.65276 -0.03685,-2.11751 -0.0019,-0.845 -0.0018,-0.84504 0.111043,-0.95148 0.06209,-0.0585 0.219305,-0.20014 0.349372,-0.3147 0.139386,-0.12277 0.275722,-0.20835 0.331956,-0.20835 0.05247,0 0.2692638,0.0714 0.4818528,0.15877 0.212588,0.0873 0.438885,0.18338 0.502789,0.21338 0.0639,0.03 0.151605,0.12405 0.194952,0.20902 0.0488,0.0957 0.07872,0.23856 0.07872,0.37533 0,0.12147 0.03657,0.36383 0.08123,0.53846 0.04466,0.17464 0.132534,0.41286 0.195119,0.52942 0.06259,0.11656 0.22595,0.32472 0.363107,0.46259 0.159013,0.15985 0.355983,0.30398 0.543488,0.39778 0.16173,0.0809 0.400479,0.16928 0.530591,0.19629 0.139167,0.0289 0.38861,0.0402 0.605959,0.0275 0.213336,-0.0125 0.468492,-0.0568 0.603615,-0.10484 0.12871,-0.0457 0.342997,-0.15712 0.476159,-0.24755 0.133162,-0.0904 0.32334,-0.2552 0.422731,-0.36612 0.09939,-0.11092 0.239976,-0.32133 0.31236,-0.46762 0.07238,-0.14628 0.150489,-0.34762 0.173513,-0.44751 0.02303,-0.0999 0.04233,-0.32406 0.04288,-0.49794 5.15e-4,-0.17387 -0.0198,-0.41395 -0.04522,-0.5336 -0.02542,-0.11965 -0.111158,-0.34692 -0.19043,-0.50497 -0.09255,-0.18452 -0.234209,-0.37544 -0.395767,-0.53361 -0.138381,-0.13547 -0.363891,-0.30586 -0.501114,-0.37868 -0.137222,-0.0728 -0.367841,-0.1603504 -0.512503,-0.1944504 -0.144661,-0.0341 -0.365886,-0.0623 -0.491567,-0.0626 -0.125683,-3.2e-4 -0.337996,0.0196 -0.471972,0.0442 -0.133976,0.0246 -0.359263,0.1021 -0.500445,0.1721704 -0.14118,0.0701 -0.343458,0.19912 -0.449695,0.2869 -0.106237,0.0878 -0.243907,0.18588 -0.305827,0.2179 -0.06192,0.032 -0.160726,0.0583 -0.219573,0.0583 -0.05885,0 -0.267644,-0.0663 -0.463933,-0.14722 -0.196286,-0.081 -0.421417,-0.17724 -0.500443,-0.21388 -0.07903,-0.0366 -0.166274,-0.095 -0.19378,-0.1298 -0.02751,-0.0348 -0.05099,-0.1649004 -0.05209,-0.2890804 -0.0011,-0.12418 -0.02912,-0.35512 -0.0623,-0.51317 -0.03318,-0.15806 -0.125723,-0.42038 -0.2056708,-0.58285 -0.08689,-0.17658 -0.23161,-0.38127 -0.359757,-0.50882 -0.117911,-0.11735 -0.285084,-0.25794 -0.371481,-0.31252 -0.08809,-0.0557 -0.182516,-0.1603 -0.215051,-0.23817 -0.05481,-0.13118 -0.04579,-0.18158 0.164973,-0.91095 0.122704,-0.42463 0.297026,-1.02663 0.387225,-1.33786 0.0902,-0.31123 0.203576,-0.63018 0.252064,-0.70863 0.04849,-0.0785 0.165103,-0.18721 0.2590988,-0.24168 0.09399,-0.0545 0.28173,-0.13049 0.417204,-0.16899 0.135473,-0.0385 0.320189,-0.10711 0.410505,-0.15241 0.09032,-0.0453 0.238121,-0.1379 0.328437,-0.20584 0.09032,-0.068 0.234745,-0.19952 0.3209,-0.29226 0.08616,-0.0927 0.218507,-0.27939 0.294104,-0.41486 0.0756,-0.13548 0.166676,-0.34666 0.202489,-0.4693 0.03741,-0.1281 0.06515,-0.37517 0.06515,-0.58066 0,-0.2419 -0.02663,-0.44387 -0.08224,-0.62389 -0.04522,-0.14641 -0.131913,-0.35629 -0.192774,-0.46627 -0.06086,-0.10997999 -0.223188,-0.31303999 -0.360595,-0.45136999 -0.147511,-0.14851 -0.358449,-0.30656 -0.515183,-0.3858903 -0.145996,-0.0739 -0.357905,-0.15919 -0.470799,-0.18942 -0.112895,-0.0302 -0.338193,-0.0551999972 -0.50078,-0.0553999972 z M 9.940329,1.1439226 c 0.131808,-0.002 0.305106,0.0239 0.385046,0.0573 0.07994,0.0334 0.216206,0.12293 0.302813,0.19898 0.08661,0.076 0.200588,0.23078 0.253237,0.34384 0.05595,0.12014 0.0959,0.28357 0.09614,0.39326 2.57e-4,0.10322 -0.02932,0.27455 -0.06549,0.38069 -0.03901,0.11449 -0.138805,0.26609 -0.245365,0.37265 -0.10656,0.10656 -0.258163,0.20636 -0.372653,0.24537 -0.106143,0.0362 -0.277297,0.0647 -0.380525,0.0635 -0.103228,-10e-4 -0.268213,-0.0351 -0.366624,-0.075 -0.09841,-0.0399 -0.244283,-0.13586 -0.324083,-0.21321 -0.0798,-0.0773 -0.178971,-0.2145 -0.220409,-0.30482 -0.0454,-0.0989 -0.07565,-0.26027 -0.07621,-0.40582 -5.14e-4,-0.13285 0.02009,-0.312 0.04589,-0.39811 0.0258,-0.0861 0.113932,-0.23045 0.195791,-0.3209 0.08186,-0.0905 0.235239,-0.20267 0.340831,-0.24938 0.117335,-0.0519 0.285138,-0.0862 0.431608,-0.0883 z m -5.863806,3.51584 c 0.25922,5.5e-4 0.389419,0.0203 0.488218,0.0737 0.07409,0.04 0.188846,0.12949 0.255079,0.1988 0.06623,0.0693 0.158042,0.2037 0.203997,0.29862 0.05584,0.11536 0.08357,0.25503 0.08357,0.42123 0,0.15692 -0.02948,0.31486 -0.07972,0.42826 -0.04379,0.0988 -0.140632,0.23874 -0.215385,0.31085 -0.07475,0.0721 -0.219128,0.16861 -0.320734,0.21455 -0.121242,0.0548 -0.269449,0.0832 -0.431105,0.0826 -0.17912,-7.5e-4 -0.298248,-0.028 -0.4368,-0.10016 -0.104792,-0.0546 -0.254982,-0.17456 -0.333797,-0.26663 -0.07881,-0.0921 -0.166449,-0.25035 -0.194785,-0.35156 -0.03004,-0.10724 -0.04226,-0.28624 -0.02931,-0.42909 0.01532,-0.16898 0.05739,-0.30061 0.135495,-0.42407 0.06231,-0.0985 0.205189,-0.24177 0.31755,-0.31839 0.193571,-0.13199 0.222849,-0.13939 0.557724,-0.13868 z m 3.925003,4.00188 c 0.04825,0 0.185182,0.0289 0.30432,0.0643 0.136011,0.0404 0.283338,0.12584 0.395934,0.22963 0.119011,0.1097 0.208808,0.24349 0.26697,0.3976 0.06446,0.17085 0.08214,0.28779 0.06666,0.4425 -0.01157,0.11566 -0.05828,0.2819204 -0.10384,0.3694704 -0.04556,0.0876 -0.133263,0.21226 -0.194785,0.27719 -0.06152,0.0649 -0.192001,0.15357 -0.290084,0.19696 -0.09808,0.0434 -0.266095,0.0877 -0.373323,0.0985 -0.131606,0.0132 -0.268304,-0.006 -0.420722,-0.0603 -0.159551,-0.0565 -0.27676,-0.13601 -0.399618,-0.27116 -0.10823,-0.11906 -0.197439,-0.27026 -0.236153,-0.40063 -0.0342,-0.1151804 -0.06214,-0.2582604 -0.06214,-0.3178804 0,-0.0596 0.03047,-0.19768 0.06766,-0.30683 0.04072,-0.11949 0.142645,-0.27594 0.25642,-0.39326 0.139968,-0.14433 0.246846,-0.21185 0.412012,-0.26044 0.122637,-0.0361 0.262434,-0.0656 0.310684,-0.0656 z m 5.392336,2.3057604 c 0.03887,-1.4e-4 0.07642,0.001 0.11054,0.004 0.136494,0.0108 0.306482,0.0498 0.377677,0.0866 0.0712,0.0368 0.187598,0.12708 0.258597,0.20048 0.071,0.0734 0.163942,0.20731 0.206508,0.29762 0.05104,0.1083 0.07738,0.25512 0.07738,0.43111 0,0.17382 -0.02666,0.32397 -0.07637,0.43093 -0.04197,0.0903 -0.147786,0.23083 -0.235148,0.3122 -0.08736,0.0814 -0.237715,0.17838 -0.334132,0.21555 -0.09642,0.0372 -0.271989,0.065 -0.390072,0.062 -0.118082,-0.003 -0.252271,-0.0131 -0.298289,-0.0223 -0.04602,-0.009 -0.174494,-0.0852 -0.285395,-0.16899 -0.127237,-0.0962 -0.244007,-0.23363 -0.316546,-0.37249 -0.08141,-0.15584 -0.114894,-0.28013 -0.114894,-0.42608 0,-0.11334 0.02228,-0.2807 0.04958,-0.37181 0.03012,-0.10053 0.132327,-0.25032 0.259936,-0.38103 0.149035,-0.15265 0.26319,-0.22968 0.391747,-0.26446 0.07482,-0.0203 0.202263,-0.0328 0.31889,-0.0332 z m -11.221807,0.26262 c 0.21444,0 0.329558,0.0222 0.453716,0.0878 0.09151,0.0483 0.224638,0.14748 0.295778,0.22024 0.07114,0.0728 0.159419,0.19548 0.196125,0.27283 0.0367,0.0774 0.07696,0.24082 0.0896,0.36328 0.01652,0.16004 0.0025,0.27645 -0.05008,0.41402 -0.0402,0.10526 -0.139768,0.26544 -0.221247,0.35591 -0.08148,0.0905 -0.222043,0.19698 -0.312359,0.23665 -0.09032,0.0397 -0.247265,0.0816 -0.348871,0.0933 -0.101605,0.0117 -0.247117,0.006 -0.323413,-0.0129 -0.0763,-0.0189 -0.187192,-0.0593 -0.246369,-0.0898 -0.05918,-0.0305 -0.164443,-0.10625 -0.233809,-0.16832 -0.06937,-0.0621 -0.170711,-0.20056 -0.225267,-0.30784 -0.07605,-0.14954 -0.09862,-0.25733 -0.09664,-0.46192 0.0018,-0.1857 0.02849,-0.31696 0.08776,-0.43161 0.04684,-0.0906 0.137586,-0.21714 0.201652,-0.2812 0.06407,-0.0641 0.190763,-0.15564 0.281374,-0.2035 0.122457,-0.0647 0.238442,-0.0869 0.452041,-0.0869 z m 6.250695,7.3308 c 0.183764,5.8e-4 0.28497,0.02 0.429934,0.071 0.129446,0.0456 0.31765,0.1395 0.418208,0.20869 0.10056,0.0692 0.246464,0.20427 0.324251,0.30013 0.07779,0.0959 0.189235,0.26936 0.247542,0.38555 0.05831,0.1162 0.125036,0.3308 0.148392,0.477 0.02886,0.18073 0.02925,0.336569 10e-4,0.486709 -0.02285,0.12145 -0.0622,0.28542 -0.08743,0.36445 -0.02522,0.079 -0.125912,0.25687 -0.223759,0.39526 -0.109388,0.15471 -0.267757,0.31129 -0.411174,0.40648 -0.128287,0.0852 -0.343139,0.18903 -0.477332,0.2308 -0.136244,0.0424 -0.355694,0.0742 -0.496927,0.0722 -0.139107,-0.002 -0.336032,-0.0268 -0.437637,-0.0551 -0.101605,-0.0283 -0.279103,-0.0995 -0.394426,-0.15827 -0.115325,-0.0587 -0.29822,-0.2048 -0.406486,-0.32459 -0.108266,-0.11978 -0.250755,-0.33251 -0.316713,-0.47264 -0.08543,-0.1815 -0.126656,-0.34396 -0.143367,-0.56492 -0.01728,-0.228459 -0.0044,-0.380599 0.04891,-0.577659 0.03983,-0.14715 0.14144,-0.37432 0.22577,-0.5048 0.08433,-0.13047 0.243845,-0.30317 0.354398,-0.3837 0.11055,-0.0805 0.284111,-0.18867 0.385716,-0.24034 0.145505,-0.074 0.271898,-0.0976 0.595241,-0.11105 0.08429,-0.004 0.154633,-0.005 0.215888,-0.005 z" />
  <metadata
     id="metadata1">
    <rdf:RDF>
      <cc:Work
         rdf:about="">
        <dc:title>micro:bit icon</dc:title>
      </cc:Work>
    </rdf:RDF>
  </metadata>
</svg>
