<?xml version="1.0" encoding="UTF-8" standalone="no"?>
<svg
   version="1.1"
   width="336.181"
   height="553"
   id="svg2"
   sodipodi:docname="micropython_isometric_transparent.svg"
   inkscape:version="1.2 (dc2aeda, 2022-05-15)"
   xmlns:inkscape="http://www.inkscape.org/namespaces/inkscape"
   xmlns:sodipodi="http://sodipodi.sourceforge.net/DTD/sodipodi-0.dtd"
   xmlns="http://www.w3.org/2000/svg"
   xmlns:svg="http://www.w3.org/2000/svg"
   xmlns:rdf="http://www.w3.org/1999/02/22-rdf-syntax-ns#"
   xmlns:cc="http://creativecommons.org/ns#"
   xmlns:dc="http://purl.org/dc/elements/1.1/">
  <title
     id="title5948">Isometric MicroPython logo</title>
  <defs
     id="defs13" />
  <sodipodi:namedview
     id="namedview11"
     pagecolor="#ffffff"
     bordercolor="#eeeeee"
     borderopacity="1"
     inkscape:showpageshadow="0"
     inkscape:pageopacity="0"
     inkscape:pagecheckerboard="0"
     inkscape:deskcolor="#505050"
     showgrid="false"
     inkscape:zoom="0.48794504"
     inkscape:cx="136.28584"
     inkscape:cy="255.15169"
     inkscape:window-width="1280"
     inkscape:window-height="685"
     inkscape:window-x="0"
     inkscape:window-y="23"
     inkscape:window-maximized="0"
     inkscape:current-layer="g1139" />
  <g
     id="g1139"
     transform="translate(0,40)">
    <g
       id="g9849"
       transform="translate(-477.5128,553)">
      <path
         id="path8040"
         style="fill:#ffffff;fill-opacity:0.5;stroke:none;stroke-width:1px;stroke-linejoin:round;stroke-opacity:0.6"
         d="m 659.54145,-511 -40,40 v 267 l 12.12305,-12.12305 V -464 l 27.87695,-27.87695 z m -117.07617,71 v 266.5 l 12.125,-12.125 V -433.5 Z m 271.22852,18 -20,20 -20,20 v 216.5293 34 V -40 l 40,-40 z m -117.07617,70.5 v 267 l 12.125,-12.125 V -344.5 Z m 38.10546,225 v 3.89453 V -92.5 l 17.32032,-17.32031 V -116.5 Z" />
      <path
         id="path8042"
         style="fill:#ffffff;fill-opacity:0.75;stroke:none;stroke-width:1px;stroke-linejoin:round;stroke-opacity:0.6"
         d="m 517.5128,-593 -40,40 142.02735,82 40,-40 z m 154.15039,89 -40,40 142.0293,82 20,-20 20,-20 z m -40,287.87695 -12.12304,12.12305 12.12304,7 z M 752.0421,-109.82031 734.72179,-92.5 l 17.32031,10 z"
         sodipodi:nodetypes="ccccccccccccccccccc" />
      <g
         id="g8062"
         transform="translate(477.5128,-553)">
        <g
           id="g8060">
          <path
             fill="white"
             d="m 0,0 142.028,82 v 267 l 12.124,7 V 89 l 142.029,82 v 342 l -64.952,-37.5 v -267 l -12.125,-7 v 267 l -142.0278,-82 v -267 L 64.9519,113 V 379.5 L 0,342 Z m 274.53,436.5 -17.321,-10 v 34 l 17.321,10 z"
             id="path8058"
             style="fill:#ffffff;fill-opacity:1;stroke:none"
             sodipodi:nodetypes="cccccccccccccccccccccc" />
        </g>
      </g>
    </g>
    <g
       id="g8801"
       transform="translate(477.5128,-553)">
      <g
         id="g8799" />
    </g>
  </g>
  <metadata
     id="metadata5946">
    <rdf:RDF>
      <cc:Work
         rdf:about="">
        <dc:title>Isometric MicroPython logo</dc:title>
        <dc:date>25/07/2022</dc:date>
        <dc:creator>
          <cc:Agent>
            <dc:title>Baptiste Gaultier</dc:title>
          </cc:Agent>
        </dc:creator>
        <dc:publisher>
          <cc:Agent>
            <dc:title>Inkscape 1.2</dc:title>
          </cc:Agent>
        </dc:publisher>
        <dc:source>https://commons.wikimedia.org/wiki/File:MicroPython_new_logo.svg</dc:source>
        <cc:license
           rdf:resource="https://commons.wikimedia.org/wiki/Category:Expat/MIT_License" />
      </cc:Work>
    </rdf:RDF>
  </metadata>
</svg>
