<?xml version="1.0" encoding="UTF-8" standalone="no"?>
<svg
   version="1.1"
   width="342"
   height="342"
   id="svg2"
   sodipodi:docname="MicroPython_new_logo.svg"
   inkscape:version="1.2 (dc2aeda, 2022-05-15)"
   xmlns:inkscape="http://www.inkscape.org/namespaces/inkscape"
   xmlns:sodipodi="http://sodipodi.sourceforge.net/DTD/sodipodi-0.dtd"
   xmlns="http://www.w3.org/2000/svg"
   xmlns:svg="http://www.w3.org/2000/svg">
  <defs
     id="defs13" />
  <sodipodi:namedview
     id="namedview11"
     pagecolor="#505050"
     bordercolor="#eeeeee"
     borderopacity="1"
     inkscape:showpageshadow="0"
     inkscape:pageopacity="0"
     inkscape:pagecheckerboard="0"
     inkscape:deskcolor="#505050"
     showgrid="false"
     inkscape:zoom="0.12198626"
     inkscape:cx="-491.85868"
     inkscape:cy="-541.04455"
     inkscape:window-width="1280"
     inkscape:window-height="800"
     inkscape:window-x="0"
     inkscape:window-y="0"
     inkscape:window-maximized="0"
     inkscape:current-layer="g1139" />
  <g
     id="g1139"
     transform="translate(-527.41,175)">
    <path
       d="m 297.209,386.5 v 34 l -40,40 v -34 l 40,-40"
       style="fill:#888a85;fill-opacity:1;stroke:none;stroke-width:1px;stroke-linejoin:round;stroke-opacity:0.6"
       id="path388" />
    <path
       d="m 297.209,420.5 17.321,10 -40,40 -17.321,-10 40,-40"
       style="fill:#ffffff;fill-opacity:1;stroke:none;stroke-width:1px;stroke-linejoin:round;stroke-opacity:0.6"
       id="path390"
       sodipodi:nodetypes="ccccc" />
    <g
       id="g1123">
      <path
         d="m 259.104,161.5 v 267 l -40,40 v -267 l 40,-40"
         style="fill:#888a85;fill-opacity:1;stroke:none;stroke-width:1px;stroke-linejoin:round;stroke-opacity:0.6"
         id="path372" />
      <g
         id="g1111">
        <path
           d="m 182.028,42 v 267 l -40,40 V 82 l 40,-40"
           style="fill:#888a85;fill-opacity:1;stroke:none;stroke-width:1px;stroke-linejoin:round;stroke-opacity:0.6"
           id="path356" />
        <path
           d="m 182.028,309 12.124,7 -40,40 -12.124,-7 40,-40"
           style="fill:#ffffff;fill-opacity:1;stroke:none;stroke-width:1px;stroke-linejoin:round;stroke-opacity:0.6"
           id="path358" />
        <path
           d="m 336.181,131 v 342 l -40,40 V 171 l 40,-40"
           style="fill:#888a85;fill-opacity:0.986487;stroke:none;stroke-width:1px;stroke-linejoin:round;stroke-opacity:0.6"
           id="path364" />
        <path
           d="m 40,-40 142.028,82 -40,40 L 0,0 40,-40"
           style="fill:#ffffff;fill-opacity:1;stroke:none;stroke-width:1px;stroke-linejoin:round;stroke-opacity:0.6"
           id="path354" />
        <path
           d="m 194.152,49 142.029,82 -40,40 -142.029,-82 40,-40"
           style="fill:#ffffff;fill-opacity:1;stroke:none;stroke-width:1px;stroke-linejoin:round;stroke-opacity:0.6"
           id="path362" />
        <path
           d="m 104.952,73 v 266.5 l -40.0001,40 V 113 L 104.952,73"
           style="fill:#888a85;fill-opacity:1;stroke:none;stroke-width:1px;stroke-linejoin:round;stroke-opacity:0.6"
           id="path380" />
        <path
           fill="white"
           d="m 0,0 142.028,82 v 267 l 12.124,7 V 89 l 142.029,82 v 342 l -64.952,-37.5 v -267 l -12.125,-7 v 267 l -142.0278,-82 v -267 L 64.9519,113 V 379.5 L 0,342 Z m 274.53,436.5 -17.321,-10 v 34 l 17.321,10 z"
           id="path4"
           style="fill:#d3d7cf;stroke:none"
           sodipodi:nodetypes="cccccccccccccccccccccc" />
      </g>
    </g>
  </g>
</svg>
